<svg xmlns="http://www.w3.org/2000/svg" height="800" width="1200" viewBox="-171.99975 -80.2255 1490.6645 481.353"><path d="M1073.232 0c-10.74-.031-15.464 2.394-18.693 10.983-21.722 57.375-.228 214.955 23.234 216.663 36.739 2.664 62.565-114.235 68.752-202.205 1.214-17.36-5.576-23.322-16.243-24.074-2.245-.171-42.4-.578-48.599-.997-3.174-.223-5.972-.362-8.45-.37zM936.197 34.188c-12.955 0-41.969 4.908-56.267 7.153-9.776 1.773-11.098 1.773-12.032 5.34-1.322 5.371-3.566 57.59-4.414 68.74-3.159 0-18.78-.461-22.356 0-6.693.452-8.454 1.332-8.454 25.449 0 23.633 0 25.89 7.573 25.89 3.137 0 16.93-1.795 20.078-1.795-2.245 21.872-4.03 42.83-4.03 60.705 0 35.697 10.282 87.564 78.54 87.005 73.091-.57 75.227-33.29 81.092-44.022 2.783-5.028-23.062-30.037-29.218-30.037-1.278 0-14.997 26.017-26.46 26.887-12.117.892-23.61-21.107-23.61-41.625 0-21.86 1.751-42.851 2.686-62.048 23.633-.87 36.587 0 52.185-.87 8.046-.43 10.291-1.796 11.161-15.621v-16.983c0-13.396-.87-16.081-9.367-16.081-6.241 0-13.825 0-22.323.472-8.475 0-18.294.452-28.993.892.902-15.63 1.332-24.558 2.223-33.023.451-4.899 2.687-29.918 2.687-35.278 0-8.917-1.344-11.15-10.701-11.15zm-220.87 74.35c-65.625 0-131.647 31.25-131.647 104.9 0 46.847 32.55 101.74 120.477 101.74 92.836 0 120.508-61.134 120.508-111.129 0-62.478-42.842-95.51-109.337-95.51zm-646.586 2.157c-5.812 0-51.34 8.907-55.797 10.229C2.234 123.179 0 125.832 0 129.849c0 6.704 50.885 112.024 75.872 154.897 15.609 27.65 23.205 29.444 29.886 29.444 9.83 0 16.092-4.91 26.792-18.746 19.626-24.546 38.834-58.9 47.289-73.606l25.438 65.57c6.253 15.158 12.954 26.331 26.801 26.331 10.657 0 19.616-7.585 28.543-18.295 12.064-14.298 30.349-44.184 46.86-74.531 10.72-18.735 45.955-83.909 45.955-94.619 0-4.909-3.556-7.142-9.367-8.475-7.574-1.794-32.592-7.124-38.833-7.124-8.014 0-9.97 1.74-17.403 19.605-.645 1.569-27.18 85.275-39.244 85.275-11.28 0-32.99-91.235-33.913-93.287-4.233-9.41-7.154-9.842-10.72-9.842-3.556 0-39.749 5.372-54.896 9.4-.913 0-9.818 2.675-9.818 8.454 0 3.577 16.05 38.845 16.05 38.845s-19.886 47.31-29.898 47.31c-9.84 0-38.81-82.962-39.701-85.701-5.253-15.727-8.938-20.059-16.952-20.059zm397.702 3.574c-65.615 0-131.636 31.252-131.636 104.902 0 46.837 32.548 101.73 120.474 101.73 92.836 0 120.51-61.135 120.51-111.13 0-62.49-42.864-95.502-109.348-95.502zm253.504 56.057c35.192 0 44.216 23.666 44.216 35.214 0 22.602-31.132 44.731-58.288 44.731-25.127 0-49.768-15.09-49.768-38.714 0-28.134 39.207-41.23 63.84-41.23zm-248.883 5.746c35.214 0 44.226 23.632 44.226 35.18 0 22.624-31.153 44.731-58.288 44.731-25.127 0-49.737-15.06-49.737-38.683 0-28.177 39.178-41.228 63.8-41.228zm613.945 70.267c-21.86 0-56.677 11.624-56.677 36.6 0 20.97 21.882 34.377 44.173 34.377 24.116 0 51.788-19.639 51.788-39.716 0-10.291-8.045-31.26-39.284-31.26z" fill="#669510"/></svg>